HIERARCHY
ROOT Hips
{
  OFFSET -32.5998 29.0326 120.673
  CHANNELS 6 Xposition Yposition Zposition Zrotation Xrotation Yrotation
  JOINT LeftUpLeg
  {
    OFFSET 8.64259 1.95398 -2.38835
    CHANNELS 3 Zrotation Xrotation Yrotation
    JOINT LeftLeg
    {
      OFFSET 43.7702 0 0
      CHANNELS 3 Zrotation Xrotation Yrotation
      JOINT LeftFoot
      {
        OFFSET 40.6238 0 0
        CHANNELS 3 Zrotation Xrotation Yrotation
        JOINT LeftToeBase
        {
          OFFSET 12.7242 0 0
          CHANNELS 3 Zrotation Xrotation Yrotation
          End Site
          {
            OFFSET 0 0 0
          }
        }
      }
    }
  }
  JOINT RightUpLeg
  {
    OFFSET -8.2249 1.95398 -2.59336
    CHANNELS 3 Zrotation Xrotation Yrotation
    JOINT RightLeg
    {
      OFFSET 43.5653 0 0
      CHANNELS 3 Zrotation Xrotation Yrotation
      JOINT RightFoot
      {
        OFFSET 40.6238 0 0
        CHANNELS 3 Zrotation Xrotation Yrotation
        JOINT RightToeBase
        {
          OFFSET 12.7242 0 0
          CHANNELS 3 Zrotation Xrotation Yrotation
          End Site
          {
            OFFSET 0 0 0
          }
        }
      }
    }
  }
  JOINT Spine
  {
    OFFSET 0.165834 0.87714 6.61349
    CHANNELS 3 Zrotation Xrotation Yrotation
    JOINT Spine1
    {
      OFFSET 7.38963 1.71661e-005 0
      CHANNELS 3 Zrotation Xrotation Yrotation
      JOINT Spine2
      {
        OFFSET 11.9445 1.14441e-005 0
        CHANNELS 3 Zrotation Xrotation Yrotation
        JOINT Spine3
        {
          OFFSET 14.7254 4.19617e-005 0
          CHANNELS 3 Zrotation Xrotation Yrotation
          JOINT Spine4
          {
            OFFSET 10.9679 0 0
            CHANNELS 3 Zrotation Xrotation Yrotation
            JOINT RightShoulder
            {
              OFFSET 2.46616 -1.6653 3.69651
              CHANNELS 3 Zrotation Xrotation Yrotation
              JOINT RightArm
              {
                OFFSET 13.0012 0 0
                CHANNELS 3 Zrotation Xrotation Yrotation
                JOINT RightForeArm
                {
                  OFFSET 28.7848 1.62311e-005 0
                  CHANNELS 3 Zrotation Xrotation Yrotation
                  JOINT RightHand
                  {
                    OFFSET 26.5688 1.62095e-005 0
                    CHANNELS 3 Zrotation Xrotation Yrotation
                    End Site
                    {
                      OFFSET 0 0 0
                    }
                  }
                }
              }
            }
            JOINT LeftShoulder
            {
              OFFSET 2.38034 -1.29275 -3.7523
              CHANNELS 3 Zrotation Xrotation Yrotation
              JOINT LeftArm
              {
                OFFSET 16.3182 6.07031e-005 0
                CHANNELS 3 Zrotation Xrotation Yrotation
                JOINT LeftForeArm
                {
                  OFFSET 27.0901 0 0
                  CHANNELS 3 Zrotation Xrotation Yrotation
                  JOINT LeftHand
                  {
                    OFFSET 24.5451 1.51738e-005 0
                    CHANNELS 3 Zrotation Xrotation Yrotation
                    End Site
                    {
                      OFFSET 0 0 0
                    }
                  }
                }
              }
            }
            JOINT Neck
            {
              OFFSET 5.0226 -0.0266342 0
              CHANNELS 3 Zrotation Xrotation Yrotation
              JOINT Head
              {
                OFFSET 6.69364 2.86102e-005 0
                CHANNELS 3 Zrotation Xrotation Yrotation
                End Site
                {
                  OFFSET 0 0 0
                }
              }
            }
          }
        }
      }
    }
  }
}
MOTION
Frames:	6
Frame Time:	0.0416667
40.5903 101.382 -335.632 -162.826 -84.2062 -163.229 -171.671 6.87951 89.2484 6.67832 48.8462 -8.87551 58.6969 -0.943414 17.4598 138.701 62.3426 32.9066 173.621 4.12621 89.6053 -25.5583 -8.94702 -1.02016 67.5504 0.0669949 3.2179 31.8829 -2.48253 5.22943 1.04721 7.26301 -89.8054 12.3486 2.17343 0.14206 0.679441 2.17756 0.0462069 -21.8688 2.03021 0.788959 -1.85616 2.0302 0.788952 102.898 -27.2825 -80.503 50.2746 -29.6328 -9.50602 -16.7714 -27.2333 -28.2081 -12.3126 -0.280601 -2.61876 -88.7085 -46.7134 80.0046 -21.9513 35.4679 -13.2294 5.53771 -3.15216 -12.9065 -3.70637 -0.0889606 -4.12394 2.44518 -2.06656 -4.04035 -8.05104 -1.38656 -0.148419 
40.6494 101.39 -335.574 -159.919 -84.1963 -160.373 -172.048 6.31167 89.1031 5.99728 47.9179 -8.03399 58.8387 -0.860651 17.5157 131.608 62.9537 41.2624 173.581 3.47291 89.4389 -24.1139 -9.13907 -0.990746 68.2743 -0.897001 2.61286 30.5856 -2.05083 5.57892 1.06868 7.2397 -89.8138 12.3955 2.21204 0.119606 0.726402 2.21516 0.0220785 -21.8224 2.07378 0.779163 -1.80978 2.07379 0.779172 99.671 -29.7935 -87.2107 48.529 -25.5922 -6.76306 -17.9721 -25.4606 -29.1926 -11.4225 -0.254861 -2.68603 -88.9746 -46.9789 79.6465 -22.1426 35.4449 -12.8305 5.51483 -3.17115 -12.7858 -2.99126 -0.0883503 -4.78787 1.67006 -2.26805 -3.89314 -7.86936 -1.62447 -0.456325 
40.5891 101.364 -335.48 -158.306 -84.0261 -158.712 -172.339 4.63392 89.2718 5.08713 46.5983 -7.11225 58.9814 -0.669986 17.6764 114.669 62.0555 60.5364 173.369 1.15487 89.7148 -20.069 -10.3162 -0.722979 71.1135 -4.5131 -0.078681 24.7789 0.180441 5.76361 1.09205 7.2727 -89.8302 12.3299 2.25084 0.0844246 0.66089 2.25237 -0.0147831 -21.8886 2.12136 0.757294 -1.87594 2.12136 0.757287 99.4916 -30.0894 -87.5469 48.2123 -25.0596 -6.45918 -18.2689 -25.3387 -29.5274 -11.3965 -0.263361 -2.59191 -89.049 -46.8688 79.508 -22.2311 35.7512 -13.1151 5.13618 -3.96455 -12.3584 -3.19521 -0.0787297 -5.86462 2.68078 -2.52267 -3.2776 -9.54288 -1.89065 -1.3102 
40.4795 101.657 -335.342 -156.667 -83.9886 -156.868 -172.606 2.23395 89.3603 4.1432 44.4549 -5.99229 58.9042 -0.592962 17.6281 91.6455 53.5276 85.502 173.448 0.128559 89.7717 -18.3003 -10.389 -0.690565 70.0101 -4.14442 0.124837 24.8724 0.195478 5.57915 1.09166 7.26263 -89.8725 12.3509 2.22995 0.00163028 0.68184 2.22786 -0.0965683 -21.8677 2.12631 0.672062 -1.85501 2.12631 0.67205 99.4032 -29.9974 -87.7365 48.1021 -25.1586 -6.39037 -17.7093 -24.8055 -29.0146 -11.1162 -0.242996 -2.74547 -89.1877 -47.0328 79.3281 -22.2894 36.239 -12.7774 4.87873 -4.57114 -12.6704 -3.52147 -0.077279 -5.86392 2.75311 -2.90229 -3.01347 -10.45 -2.27293 -1.67555 
40.3317 101.903 -335.106 -154.646 -83.9143 -154.815 -173.092 -0.524254 89.56 2.80616 40.8765 -4.46081 58.483 -0.752645 17.0343 77.0883 35.6569 97.1488 173.365 -0.567087 89.8383 -16.8796 -10.4101 -0.577999 69.3938 -4.1058 0.462841 24.7475 0.2498 5.56312 1.08051 7.28214 -89.8937 12.3121 2.19777 -0.035962 0.643042 2.19406 -0.132707 -21.9062 2.10692 0.626522 -1.89354 2.10693 0.626518 99.2041 -30.2263 -88.1216 47.638 -25.1832 -6.4933 -17.7722 -25.0706 -29.0603 -11.3574 -0.351633 -1.64236 -89.1123 -47.303 79.502 -22.1542 35.4526 -12.9883 5.30252 -3.42899 -12.1906 -1.75666 -0.0892425 -4.1307 3.43496 -3.34765 -2.80876 -11.5588 -2.71347 -1.67212 
39.9994 102.087 -334.906 -153.109 -84.2146 -153.1 -172.834 -1.83126 90.1535 -0.294787 36.3422 -3.88909 58.3216 -0.704532 15.6152 68.0119 15.8975 88.081 173.705 -1.32663 90.3653 -14.9825 -10.3366 -0.608415 68.6507 -4.08606 0.25996 24.7066 0.341588 5.29397 1.06446 7.24575 -89.9233 12.3853 2.15169 -0.0918132 0.716122 2.14557 -0.186473 -21.8327 2.07976 0.559393 -1.82003 2.07976 0.559389 99.0199 -30.411 -88.4783 47.2443 -25.3579 -6.34807 -18.0578 -25.1051 -29.5217 -11.2241 -0.325289 -1.87984 -89.3548 -47.2721 79.1211 -22 35.4675 -12.8938 5.1867 -3.87047 -12.0932 -1.98141 -0.0920108 -4.30602 3.66586 -3.67643 -2.68052 -12.2743 -3.02952 -1.85563 
